<?xml version="1.0" encoding="UTF-8" standalone="no"?>
<svg xmlns="http://www.w3.org/2000/svg" width="64" height="64" viewBox="0 0 64 64">
  <!-- Arrière-plan espace pixelisé -->
  <rect width="64" height="64" fill="#070B34" />
  
  <!-- Étoiles -->
  <rect x="10" y="5" width="2" height="2" fill="white" />
  <rect x="20" y="15" width="2" height="2" fill="white" />
  <rect x="35" y="8" width="2" height="2" fill="white" />
  <rect x="50" y="12" width="2" height="2" fill="white" />
  <rect x="15" y="25" width="2" height="2" fill="white" />
  <rect x="42" y="30" width="2" height="2" fill="white" />
  <rect x="8" y="40" width="2" height="2" fill="white" />
  <rect x="25" y="45" width="2" height="2" fill="white" />
  <rect x="55" y="35" width="2" height="2" fill="white" />
  <rect x="48" y="50" width="2" height="2" fill="white" />
  <rect x="30" y="55" width="2" height="2" fill="white" />
  
  <!-- Plus grandes étoiles -->
  <rect x="12" y="18" width="4" height="4" fill="#7DF9FF" />
  <rect x="38" y="42" width="4" height="4" fill="#7DF9FF" />
  
  <!-- Planète -->
  <circle cx="50" cy="24" r="6" fill="#5E35B1" />
  <circle cx="48" cy="22" r="2" fill="#7E57C2" />
</svg>