<?xml version="1.0" encoding="UTF-8" standalone="no"?>
<svg xmlns="http://www.w3.org/2000/svg" width="64" height="64" viewBox="0 0 64 64">
  <!-- Effet de particules pixelisées -->
  <g>
    <!-- Particules -->
    <rect x="10" y="10" width="4" height="4" fill="#FF5252" />
    <rect x="20" y="5" width="4" height="4" fill="#FFD740" />
    <rect x="30" y="15" width="4" height="4" fill="#64FFDA" />
    <rect x="40" y="10" width="4" height="4" fill="#448AFF" />
    <rect x="50" y="20" width="4" height="4" fill="#E040FB" />
    
    <rect x="15" y="30" width="4" height="4" fill="#FF5252" />
    <rect x="25" y="40" width="4" height="4" fill="#FFD740" />
    <rect x="35" y="25" width="4" height="4" fill="#64FFDA" />
    <rect x="45" y="35" width="4" height="4" fill="#448AFF" />
    <rect x="5" y="45" width="4" height="4" fill="#E040FB" />
    
    <rect x="50" y="50" width="4" height="4" fill="#FF5252" />
    <rect x="40" y="45" width="4" height="4" fill="#FFD740" />
    <rect x="20" y="55" width="4" height="4" fill="#64FFDA" />
    <rect x="10" y="50" width="4" height="4" fill="#448AFF" />
    <rect x="30" y="40" width="4" height="4" fill="#E040FB" />
  </g>
</svg>